<svg width="32" height="32" viewBox="0 0 32 32" fill="none" xmlns="http://www.w3.org/2000/svg">
<path d="M10.6665 19.6666C10.4132 19.6666 10.1598 19.5733 9.95984 19.3733L7.29317 16.7066C6.90651 16.32 6.90651 15.6799 7.29317 15.2932L9.95984 12.6265C10.3465 12.2399 10.9865 12.2399 11.3732 12.6265C11.7598 13.0132 11.7598 13.6533 11.3732 14.04L9.41317 15.9999L11.3732 17.9599C11.7598 18.3465 11.7598 18.9866 11.3732 19.3733C11.1732 19.5733 10.9198 19.6666 10.6665 19.6666Z" fill="#272727"/>
<path d="M21.3333 19.6666C21.08 19.6666 20.8267 19.5733 20.6267 19.3733C20.24 18.9866 20.24 18.3465 20.6267 17.9599L22.5867 15.9999L20.6267 14.04C20.24 13.6533 20.24 13.0132 20.6267 12.6265C21.0133 12.2399 21.6533 12.2399 22.04 12.6265L24.7067 15.2932C25.0933 15.6799 25.0933 16.32 24.7067 16.7066L22.04 19.3733C21.84 19.5733 21.5867 19.6666 21.3333 19.6666Z" fill="#272727"/>
<path d="M16.0001 30.3333C8.09341 30.3333 1.66675 23.9066 1.66675 16C1.66675 8.09329 8.09341 1.66663 16.0001 1.66663C23.9067 1.66663 30.3334 8.09329 30.3334 16C30.3334 23.9066 23.9067 30.3333 16.0001 30.3333ZM16.0001 3.66663C9.20008 3.66663 3.66675 9.19996 3.66675 16C3.66675 22.8 9.20008 28.3333 16.0001 28.3333C22.8001 28.3333 28.3334 22.8 28.3334 16C28.3334 9.19996 22.8001 3.66663 16.0001 3.66663Z" fill="#272727"/>
<path d="M14.6669 20.1068C14.5336 20.1068 14.4002 20.0801 14.2802 20.0268C13.7736 19.8135 13.5336 19.2268 13.7602 18.7068L16.4269 12.4801C16.6402 11.9734 17.2269 11.7334 17.7336 11.9601C18.2402 12.1734 18.4802 12.7601 18.2536 13.2801L15.5869 19.5068C15.4269 19.8801 15.0536 20.1068 14.6669 20.1068Z" fill="#272727"/>
</svg>
