<svg width="24" height="24" viewBox="0 0 24 24" fill="none" xmlns="http://www.w3.org/2000/svg">
<path fill-rule="evenodd" clip-rule="evenodd" d="M10.5003 17.1735H5.78413C5.47426 17.1735 5.22278 16.922 5.22278 16.6121C5.22278 16.3023 5.47426 16.0508 5.78413 16.0508H10.5003C10.8101 16.0508 11.0616 16.3023 11.0616 16.6121C11.0616 16.922 10.8101 17.1735 10.5003 17.1735Z" fill="#272727"/>
<path fill-rule="evenodd" clip-rule="evenodd" d="M17.3194 9.91909H12.6041C12.2942 9.91909 12.0427 9.66761 12.0427 9.35774C12.0427 9.04787 12.2942 8.79639 12.6041 8.79639H17.3194C17.6293 8.79639 17.8808 9.04787 17.8808 9.35774C17.8808 9.66761 17.6293 9.91909 17.3194 9.91909Z" fill="#272727"/>
<mask id="mask0_593_1807" style="mask-type:luminance" maskUnits="userSpaceOnUse" x="5" y="7" width="5" height="5">
<path fill-rule="evenodd" clip-rule="evenodd" d="M5.20081 7H9.86064V11.6342H5.20081V7Z" fill="white"/>
</mask>
<g mask="url(#mask0_593_1807)">
<path fill-rule="evenodd" clip-rule="evenodd" d="M7.53119 8.12247C6.8658 8.12247 6.32391 8.65837 6.32391 9.31777C6.32391 9.97643 6.8658 10.5116 7.53119 10.5116C8.19733 10.5116 8.73848 9.97643 8.73848 9.31777C8.73848 8.65837 8.19733 8.12247 7.53119 8.12247ZM7.53104 11.6342C6.24666 11.6342 5.20105 10.5953 5.20105 9.31765C5.20105 8.04001 6.24666 6.99963 7.53104 6.99963C8.81617 6.99963 9.86103 8.04001 9.86103 9.31765C9.86103 10.5953 8.81617 11.6342 7.53104 11.6342Z" fill="#272727"/>
</g>
<path fill-rule="evenodd" clip-rule="evenodd" d="M15.9697 15.3886C15.3035 15.3886 14.7616 15.9245 14.7616 16.5831C14.7616 17.2425 15.3035 17.7777 15.9697 17.7777C16.6351 17.7777 17.1762 17.2425 17.1762 16.5831C17.1762 15.9245 16.6351 15.3886 15.9697 15.3886ZM15.9698 18.9004C14.6847 18.9004 13.639 17.8608 13.639 16.5831C13.639 15.3055 14.6847 14.2659 15.9698 14.2659C17.2542 14.2659 18.299 15.3055 18.299 16.5831C18.299 17.8608 17.2542 18.9004 15.9698 18.9004Z" fill="#272727"/>
</svg>
