<svg width="252" height="42" viewBox="0 0 252 42" fill="none" xmlns="http://www.w3.org/2000/svg">
<path d="M25.6375 33.0588C24.045 33.0588 23.2488 32.6196 23.2488 31.7412V17.8353H4.80113V31.7412C4.80113 32.6196 4.00488 33.0588 2.41239 33.0588C0.804129 33.0588 0 32.6196 0 31.7412V1.31765C0 0.439216 0.804129 0 2.41239 0C4.00488 0 4.80113 0.439216 4.80113 1.31765V15.2235H23.2488V1.31765C23.2488 0.439216 24.045 0 25.6375 0C27.2458 0 28.0499 0.439216 28.0499 1.31765V31.7412C28.0499 32.6196 27.2458 33.0588 25.6375 33.0588Z" fill="#272727"/>
<path d="M44.3454 33.0588C40.7662 33.0588 37.7468 32 35.2871 29.8824C32.8274 27.749 31.5976 24.8392 31.5976 21.1529C31.5976 17.4039 32.8432 14.4392 35.3344 12.2588C37.8414 10.0627 40.916 8.96471 44.5582 8.96471C48.027 8.96471 51.0149 9.87451 53.5219 11.6941C56.0289 13.498 57.2824 16.2039 57.2824 19.8118C57.2824 20.8157 56.4862 21.3176 54.8937 21.3176H36.375C36.4066 23.6392 37.1161 25.7412 38.5036 27.6235C39.8911 29.5059 41.8463 30.4471 44.369 30.4471C46.1823 30.4471 47.8615 29.9608 49.4067 28.9882C51.0307 27.9529 51.9137 26.7294 52.0556 25.3176C52.1344 24.502 52.9149 24.0941 54.397 24.0941C56.021 24.0941 56.833 24.5255 56.833 25.3882C56.833 25.8275 56.699 26.3608 56.431 26.9882C55.8476 28.3686 54.736 29.5922 53.0962 30.6588C50.6365 32.2588 47.7196 33.0588 44.3454 33.0588ZM52.434 18.7059C51.9294 13.9529 49.3042 11.5765 44.5582 11.5765C40.3326 11.5765 37.6995 13.9529 36.6588 18.7059H52.434Z" fill="#272727"/>
<path d="M62.6511 33.0588C61.0429 33.0588 60.2388 32.6196 60.2388 31.7412V1.31765C60.2388 0.439216 61.0429 0 62.6511 0C64.2436 0 65.0399 0.439216 65.0399 1.31765V31.7412C65.0399 32.6196 64.2436 33.0588 62.6511 33.0588Z" fill="#272727"/>
<path d="M71.6148 42C70.0066 42 69.2024 41.5608 69.2024 40.6824V10.2588C69.2024 9.38039 70.0066 8.94118 71.6148 8.94118C73.2073 8.94118 74.0036 9.38039 74.0036 10.2588V11.6941C75.8168 9.87451 78.2528 8.96471 81.3117 8.96471C89.3845 8.96471 93.4209 12.9804 93.4209 21.0118C93.4209 29.0431 89.3845 33.0588 81.3117 33.0588C78.2686 33.0588 75.8326 32.149 74.0036 30.3294V40.6824C74.0036 41.5608 73.2073 42 71.6148 42ZM81.3117 30.4235C83.8029 30.4235 85.6398 29.3804 86.8223 27.2941C88.0206 25.2078 88.6198 23.1137 88.6198 21.0118C88.6198 18.9098 88.0206 16.8157 86.8223 14.7294C85.6398 12.6431 83.8029 11.6 81.3117 11.6C78.8362 11.6 76.9993 12.6431 75.801 14.7294C74.6027 16.8157 74.0036 18.9098 74.0036 21.0118C74.0036 23.1137 74.6027 25.2078 75.801 27.2941C76.9993 29.3804 78.8362 30.4235 81.3117 30.4235Z" fill="#272727"/>
<path d="M109.811 33.0353C106.689 33.098 103.804 32.4078 101.155 30.9647C98.5216 29.5216 96.7557 27.2157 95.857 24.0471C95.8097 23.8118 95.786 23.6941 95.786 23.6941C95.786 22.8314 96.5901 22.4 98.1984 22.4C99.5859 22.4 100.374 22.7765 100.563 23.5294C101.793 28.1255 104.892 30.4235 109.858 30.4235C111.876 30.4235 113.887 29.8275 115.889 28.6353C117.892 27.4275 118.893 25.6784 118.893 23.3882C118.893 21.8039 117.9 20.5569 115.913 19.6471C114.431 18.9569 112.547 18.4941 110.26 18.2588C108.762 18.102 107.225 17.8667 105.648 17.5529C104.072 17.2392 102.605 16.7373 101.249 16.0471C98.1432 14.4314 96.5901 12.0471 96.5901 8.89412C96.5901 5.69412 98.1432 3.41176 101.249 2.04706C104.371 0.682353 107.265 0 109.929 0C112.657 0 115.266 0.611765 117.758 1.83529C120.249 3.05882 121.881 5.05098 122.653 7.81176C122.716 8.03137 122.748 8.18824 122.748 8.28235C122.748 9.1451 121.96 9.57647 120.383 9.57647C118.98 9.57647 118.183 9.2 117.994 8.44706C117.032 4.57255 114.344 2.63529 109.929 2.63529C108.069 2.63529 106.177 3.13725 104.253 4.14118C102.345 5.12941 101.391 6.70588 101.391 8.87059C101.391 10.3922 102.495 11.6314 104.702 12.5882C106.342 13.2784 108.384 13.749 110.828 14C112.373 14.1569 113.981 14.4078 115.653 14.7529C117.324 15.098 118.814 15.6863 120.123 16.5176C122.488 18.0078 123.67 20.2353 123.67 23.2C123.67 26.698 122.086 29.2 118.917 30.7059C115.763 32.2118 112.728 32.9882 109.811 33.0353Z" fill="#272727"/>
<path d="M147.534 33.0588C145.942 33.0588 145.145 32.6196 145.145 31.7412V19.5529C145.145 17.7176 144.641 15.9373 143.632 14.2118C142.623 12.4863 141.03 11.6235 138.854 11.6235C136.521 11.6235 134.802 12.5647 133.698 14.4471C132.595 16.3137 132.043 18.2275 132.043 20.1882V31.7412C132.043 32.6196 131.247 33.0588 129.654 33.0588C128.046 33.0588 127.242 32.6196 127.242 31.7412V1.31765C127.242 0.439216 128.046 0 129.654 0C131.247 0 132.043 0.439216 132.043 1.31765V11.7176C133.777 9.88235 136.142 8.96471 139.138 8.96471C142.292 8.96471 144.877 9.96863 146.896 11.9765C148.93 13.9686 149.947 16.4863 149.947 19.5294V31.7412C149.947 32.6196 149.142 33.0588 147.534 33.0588Z" fill="#272727"/>
<path d="M165.059 33.0588C161.48 33.0588 158.461 32 156.001 29.8824C153.541 27.749 152.312 24.8392 152.312 21.1529C152.312 17.4039 153.557 14.4392 156.048 12.2588C158.555 10.0627 161.63 8.96471 165.272 8.96471C168.741 8.96471 171.729 9.87451 174.236 11.6941C176.743 13.498 177.996 16.2039 177.996 19.8118C177.996 20.8157 177.2 21.3176 175.608 21.3176H157.089C157.121 23.6392 157.83 25.7412 159.218 27.6235C160.605 29.5059 162.56 30.4471 165.083 30.4471C166.896 30.4471 168.576 29.9608 170.121 28.9882C171.745 27.9529 172.628 26.7294 172.77 25.3176C172.848 24.502 173.629 24.0941 175.111 24.0941C176.735 24.0941 177.547 24.5255 177.547 25.3882C177.547 25.8275 177.413 26.3608 177.145 26.9882C176.562 28.3686 175.45 29.5922 173.81 30.6588C171.351 32.2588 168.434 33.0588 165.059 33.0588ZM173.148 18.7059C172.643 13.9529 170.018 11.5765 165.272 11.5765C161.047 11.5765 158.414 13.9529 157.373 18.7059H173.148Z" fill="#272727"/>
<path d="M183.365 33.0588C181.757 33.0588 180.953 32.6196 180.953 31.7412V1.31765C180.953 0.439216 181.757 0 183.365 0C184.958 0 185.754 0.439216 185.754 1.31765V31.7412C185.754 32.6196 184.958 33.0588 183.365 33.0588Z" fill="#272727"/>
<path d="M201.127 33.0588C195.813 33.0275 193.157 30.8627 193.157 26.5647V11.6H190.508C188.915 11.6 188.119 11.1608 188.119 10.2824C188.119 9.40392 188.915 8.96471 190.508 8.96471H193.157V1.31765C193.157 0.439216 193.961 0 195.569 0C197.177 0 197.981 0.439216 197.981 1.31765V8.96471H201.955C203.563 8.96471 204.367 9.40392 204.367 10.2824C204.367 11.1608 203.563 11.6 201.955 11.6H197.981V26.5647C197.981 29.1373 199.038 30.4235 201.151 30.4235C201.592 30.4235 202.01 30.3843 202.404 30.3059C202.814 30.2118 203.224 30.1647 203.634 30.1647C205.29 30.1647 206.117 30.6196 206.117 31.5294C206.117 32.1412 205.455 32.5647 204.131 32.8C203.09 32.9725 202.089 33.0588 201.127 33.0588Z" fill="#272727"/>
<path d="M219.456 33.0588C215.877 33.0588 212.858 32 210.398 29.8824C207.938 27.749 206.709 24.8392 206.709 21.1529C206.709 17.4039 207.954 14.4392 210.445 12.2588C212.952 10.0627 216.027 8.96471 219.669 8.96471C223.138 8.96471 226.126 9.87451 228.633 11.6941C231.14 13.498 232.393 16.2039 232.393 19.8118C232.393 20.8157 231.597 21.3176 230.005 21.3176H211.486C211.518 23.6392 212.227 25.7412 213.615 27.6235C215.002 29.5059 216.957 30.4471 219.48 30.4471C221.293 30.4471 222.973 29.9608 224.518 28.9882C226.142 27.9529 227.025 26.7294 227.167 25.3176C227.245 24.502 228.026 24.0941 229.508 24.0941C231.132 24.0941 231.944 24.5255 231.944 25.3882C231.944 25.8275 231.81 26.3608 231.542 26.9882C230.959 28.3686 229.847 29.5922 228.207 30.6588C225.748 32.2588 222.831 33.0588 219.456 33.0588ZM227.545 18.7059C227.04 13.9529 224.415 11.5765 219.669 11.5765C215.444 11.5765 212.811 13.9529 211.77 18.7059H227.545Z" fill="#272727"/>
<path d="M238.353 33.0588C236.745 33.0588 235.941 32.6196 235.941 31.7412V10.2824C235.941 9.40392 236.745 8.96471 238.353 8.96471C239.946 8.96471 240.742 9.40392 240.742 10.2824V11.7176C242.051 9.88235 243.959 8.96471 246.466 8.96471C248.374 8.96471 250.021 9.41177 251.409 10.3059C251.803 10.5569 252 10.8549 252 11.2C252 11.6392 251.748 12.0235 251.243 12.3529C250.802 12.651 250.313 12.8 249.777 12.8C249.272 12.8 248.839 12.6667 248.476 12.4C247.735 11.8196 246.907 11.5294 245.993 11.5294C244.164 11.5294 242.784 12.4863 241.854 14.4C241.113 15.8902 240.742 17.898 240.742 20.4235V31.7412C240.742 32.6196 239.946 33.0588 238.353 33.0588Z" fill="#272727"/>
</svg>
