<svg width="24" height="24" viewBox="0 0 24 24" fill="none" xmlns="http://www.w3.org/2000/svg">
<path fill-rule="evenodd" clip-rule="evenodd" d="M3.75098 11.9995C3.75098 7.44316 7.44463 3.74951 12.001 3.74951C16.5573 3.74951 20.251 7.44316 20.251 11.9995C20.251 16.5558 16.5573 20.2495 12.001 20.2495C7.44462 20.2495 3.75098 16.5558 3.75098 11.9995ZM12.001 5.24951C8.27305 5.24951 5.25098 8.27159 5.25098 11.9995C5.25098 15.7274 8.27306 18.7495 12.001 18.7495C15.7289 18.7495 18.751 15.7274 18.751 11.9995C18.751 8.27159 15.7289 5.24951 12.001 5.24951Z" fill="#272727"/>
<path fill-rule="evenodd" clip-rule="evenodd" d="M3.75098 12.0005C3.75098 11.5863 4.08676 11.2505 4.50098 11.2505H19.501C19.9152 11.2505 20.251 11.5863 20.251 12.0005C20.251 12.4147 19.9152 12.7505 19.501 12.7505H4.50098C4.08676 12.7505 3.75098 12.4147 3.75098 12.0005Z" fill="#272727"/>
<path fill-rule="evenodd" clip-rule="evenodd" d="M12.001 3.74951C12.2117 3.74951 12.4126 3.83813 12.5547 3.99369C14.5533 6.18169 15.6891 9.02115 15.7508 11.9839C15.751 11.9943 15.751 12.0047 15.7508 12.0151C15.6891 14.9779 14.5533 17.8173 12.5547 20.0053C12.4126 20.1609 12.2117 20.2495 12.001 20.2495C11.7903 20.2495 11.5893 20.1609 11.4472 20.0053C9.44865 17.8173 8.31286 14.9779 8.25114 12.0151C8.25092 12.0047 8.25092 11.9943 8.25114 11.9839C8.31286 9.02115 9.44865 6.18169 11.4472 3.99369C11.5893 3.83813 11.7903 3.74951 12.001 3.74951ZM12.001 5.66261C10.5957 7.47314 9.80255 9.69338 9.75115 11.9995C9.80255 14.3057 10.5957 16.5259 12.001 18.3364C13.4063 16.5258 14.1994 14.3057 14.2508 11.9995C14.1994 9.69338 13.4063 7.47314 12.001 5.66261Z" fill="#272727"/>
</svg>
