<svg width="32" height="32" viewBox="0 0 32 32" fill="none" xmlns="http://www.w3.org/2000/svg">
<path d="M8.11436 31.8868C6.21131 31.8003 5.17752 31.4836 4.48991 31.2154C3.5788 30.8606 2.92924 30.4384 2.24543 29.7555C1.56163 29.0727 1.13841 28.4231 0.785568 27.512C0.517371 26.8244 0.200672 25.7906 0.114126 23.8875C0.019021 21.8304 0 21.2132 0 16.0014C0 10.7897 0.0209231 10.1734 0.113175 8.11436C0.199721 6.21131 0.518323 5.17942 0.784617 4.48991C1.13936 3.5788 1.56258 2.92924 2.24448 2.24448C2.92733 1.56163 3.5769 1.13746 4.48896 0.784617C5.17657 0.51642 6.21036 0.199721 8.11341 0.113175C10.1715 0.019021 10.7897 0 15.9995 0C21.2113 0 21.8276 0.0209231 23.8866 0.113175C25.7896 0.199721 26.8215 0.518323 27.511 0.784617C28.4221 1.13746 29.0717 1.56163 29.7555 2.24448C30.4393 2.92733 30.8606 3.57785 31.2154 4.48896C31.4836 5.17657 31.8003 6.21036 31.8868 8.11341C31.981 10.1724 32 10.7887 32 16.0005C32 21.2103 31.981 21.8285 31.8868 23.8875C31.8003 25.7906 31.4817 26.8244 31.2154 27.512C30.8606 28.4231 30.4384 29.0727 29.7555 29.7555C29.0727 30.4384 28.4221 30.8606 27.511 31.2154C26.8234 31.4836 25.7896 31.8003 23.8866 31.8868C21.8295 31.981 21.2113 32 15.9995 32C10.7897 32 10.1715 31.9819 8.11436 31.8868Z" fill="url(#paint0_radial_593_1839)"/>
<path d="M8.11436 31.8868C6.21131 31.8003 5.17752 31.4836 4.48991 31.2154C3.5788 30.8606 2.92924 30.4384 2.24543 29.7555C1.56163 29.0727 1.13841 28.4231 0.785568 27.512C0.517371 26.8244 0.200672 25.7906 0.114126 23.8875C0.019021 21.8304 0 21.2132 0 16.0014C0 10.7897 0.0209231 10.1734 0.113175 8.11436C0.199721 6.21131 0.518323 5.17942 0.784617 4.48991C1.13936 3.5788 1.56258 2.92924 2.24448 2.24448C2.92733 1.56163 3.5769 1.13746 4.48896 0.784617C5.17657 0.51642 6.21036 0.199721 8.11341 0.113175C10.1715 0.019021 10.7897 0 15.9995 0C21.2113 0 21.8276 0.0209231 23.8866 0.113175C25.7896 0.199721 26.8215 0.518323 27.511 0.784617C28.4221 1.13746 29.0717 1.56163 29.7555 2.24448C30.4393 2.92733 30.8606 3.57785 31.2154 4.48896C31.4836 5.17657 31.8003 6.21036 31.8868 8.11341C31.981 10.1724 32 10.7887 32 16.0005C32 21.2103 31.981 21.8285 31.8868 23.8875C31.8003 25.7906 31.4817 26.8244 31.2154 27.512C30.8606 28.4231 30.4384 29.0727 29.7555 29.7555C29.0727 30.4384 28.4221 30.8606 27.511 31.2154C26.8234 31.4836 25.7896 31.8003 23.8866 31.8868C21.8295 31.981 21.2113 32 15.9995 32C10.7897 32 10.1715 31.9819 8.11436 31.8868Z" fill="url(#paint1_radial_593_1839)"/>
<path d="M12.3694 15.8867C12.3694 13.944 13.9438 12.3686 15.8866 12.3686C17.8293 12.3686 19.4046 13.944 19.4046 15.8867C19.4046 17.8294 17.8293 19.4048 15.8866 19.4048C13.9438 19.4048 12.3694 17.8294 12.3694 15.8867ZM10.4676 15.8867C10.4676 18.8796 12.8937 21.3057 15.8866 21.3057C18.8795 21.3057 21.3056 18.8796 21.3056 15.8867C21.3056 12.8938 18.8795 10.4677 15.8866 10.4677C12.8937 10.4677 10.4677 12.8936 10.4677 15.8867M20.2538 10.2528C20.2537 10.5033 20.3279 10.7482 20.467 10.9565C20.606 11.1648 20.8037 11.3272 21.0351 11.4231C21.2665 11.5191 21.5211 11.5443 21.7668 11.4955C22.0125 11.4467 22.2381 11.3262 22.4153 11.1492C22.5925 10.9721 22.7132 10.7465 22.7622 10.5009C22.8111 10.2553 22.7862 10.0006 22.6904 9.76918C22.5946 9.53773 22.4324 9.33988 22.2242 9.20065C22.016 9.06141 21.7712 8.98704 21.5207 8.98694H21.5202C21.1845 8.98709 20.8625 9.1205 20.6251 9.35785C20.3876 9.5952 20.2541 9.9171 20.2538 10.2528ZM11.623 24.477C10.5941 24.4301 10.0349 24.2587 9.66324 24.1139C9.17053 23.9221 8.81898 23.6936 8.44936 23.3245C8.07974 22.9554 7.85094 22.6042 7.65997 22.1115C7.51509 21.74 7.3437 21.1806 7.29693 20.1517C7.24577 19.0393 7.23555 18.7051 7.23555 15.8869C7.23555 13.0686 7.24661 12.7354 7.29693 11.6221C7.34379 10.5932 7.51644 10.0348 7.65997 9.66227C7.85178 9.16955 8.08024 8.818 8.44936 8.44838C8.81847 8.07876 9.16968 7.84996 9.66324 7.65899C10.0347 7.51411 10.5941 7.34273 11.623 7.29596C12.7354 7.24479 13.0696 7.23458 15.8866 7.23458C18.7036 7.23458 19.0381 7.24547 20.1514 7.29613C21.1803 7.34298 21.7386 7.51563 22.1112 7.65916C22.6039 7.85013 22.9555 8.07944 23.3251 8.44855C23.6947 8.81766 23.9227 9.16972 24.1145 9.66244C24.2593 10.0339 24.4307 10.5933 24.4775 11.6222C24.5287 12.7356 24.5389 13.0688 24.5389 15.887C24.5389 18.7053 24.5287 19.0385 24.4775 20.1519C24.4306 21.1808 24.2584 21.74 24.1145 22.1117C23.9227 22.6044 23.6942 22.9559 23.3251 23.3247C22.956 23.6935 22.6039 23.9223 22.1112 24.1141C21.7397 24.259 21.1803 24.4303 20.1514 24.4771C19.039 24.5283 18.7048 24.5385 15.8866 24.5385C13.0683 24.5385 12.7351 24.5283 11.623 24.4771M11.5357 5.39729C10.4122 5.44845 9.6445 5.62659 8.97407 5.88747C8.28016 6.15687 7.69196 6.5183 7.10461 7.10473C6.51725 7.69116 6.15675 8.27944 5.88734 8.97419C5.62647 9.64504 5.44833 10.4123 5.39716 11.5358C5.34516 12.661 5.33325 13.0208 5.33325 15.8867C5.33325 18.7527 5.34516 19.1124 5.39716 20.2376C5.44833 21.3612 5.62647 22.1284 5.88734 22.7992C6.15675 23.4931 6.51734 24.0825 7.10461 24.6687C7.69188 25.2549 8.27932 25.6158 8.97407 25.8859C9.64577 26.1468 10.4122 26.325 11.5357 26.3761C12.6615 26.4273 13.0206 26.44 15.8866 26.44C18.7525 26.44 19.1123 26.4281 20.2375 26.3761C21.3611 26.325 22.1282 26.1468 22.7991 25.8859C23.493 25.6158 24.0812 25.2551 24.6686 24.6687C25.2559 24.0823 25.6157 23.4931 25.8858 22.7992C26.1467 22.1284 26.3257 21.3611 26.376 20.2376C26.4272 19.1116 26.4391 18.7527 26.4391 15.8867C26.4391 13.0208 26.4272 12.661 26.376 11.5358C26.3248 10.4122 26.1467 9.64462 25.8858 8.97419C25.6157 8.28029 25.255 7.69209 24.6686 7.10473C24.0821 6.51737 23.493 6.15687 22.7999 5.88747C22.1282 5.62659 21.361 5.4476 20.2384 5.39729C19.113 5.34587 18.7534 5.33337 15.8879 5.33337C13.0223 5.33337 12.6619 5.34528 11.5361 5.39729" fill="white"/>
<defs>
<radialGradient id="paint0_radial_593_1839" cx="0" cy="0" r="1" gradientUnits="userSpaceOnUse" gradientTransform="translate(2.07101 31.299) scale(40.6281)">
<stop offset="0.09" stop-color="#FA8F21"/>
<stop offset="0.78" stop-color="#D82D7E"/>
</radialGradient>
<radialGradient id="paint1_radial_593_1839" cx="0" cy="0" r="1" gradientUnits="userSpaceOnUse" gradientTransform="translate(22.1653 30.2715) scale(35.7531)">
<stop offset="0.64" stop-color="#8C3AAA" stop-opacity="0"/>
<stop offset="1" stop-color="#8C3AAA"/>
</radialGradient>
</defs>
</svg>
