<svg viewBox="0 0 158 28" fill="none" xmlns="http://www.w3.org/2000/svg">
<path d="M16.8709 21.465C15.885 21.465 15.3921 21.1931 15.3921 20.6493V12.0409H3.97213V20.6493C3.97213 21.1931 3.47921 21.465 2.49338 21.465C1.49779 21.465 1 21.1931 1 20.6493V1.81569C1 1.2719 1.49779 1 2.49338 1C3.47921 1 3.97213 1.2719 3.97213 1.81569V10.4241H15.3921V1.81569C15.3921 1.2719 15.885 1 16.8709 1C17.8664 1 18.3642 1.2719 18.3642 1.81569V20.6493C18.3642 21.1931 17.8664 21.465 16.8709 21.465Z" fill="#272727"/>
<path d="M28.4519 21.465C26.2362 21.465 24.3671 20.8095 22.8444 19.4986C21.3217 18.178 20.5604 16.3767 20.5604 14.0947C20.5604 11.7739 21.3315 9.93856 22.8737 8.5888C24.4256 7.22932 26.329 6.54958 28.5837 6.54958C30.731 6.54958 32.5807 7.11279 34.1326 8.23922C35.6846 9.35593 36.4605 11.031 36.4605 13.2644C36.4605 13.8859 35.9676 14.1966 34.9818 14.1966H23.5179C23.5374 15.6338 23.9766 16.935 24.8356 18.1003C25.6945 19.2655 26.9048 19.8482 28.4665 19.8482C29.589 19.8482 30.6285 19.5472 31.5851 18.9451C32.5904 18.3042 33.137 17.5468 33.2249 16.6728C33.2737 16.1679 33.7568 15.9154 34.6743 15.9154C35.6797 15.9154 36.1824 16.1824 36.1824 16.7165C36.1824 16.9884 36.0994 17.3186 35.9335 17.707C35.5723 18.5615 34.8842 19.319 33.8691 19.9793C32.3464 20.9697 30.5407 21.465 28.4519 21.465ZM33.4591 12.5798C33.1468 9.63754 31.5216 8.16639 28.5837 8.16639C25.9678 8.16639 24.3378 9.63754 23.6936 12.5798H33.4591Z" fill="#272727"/>
<path d="M39.784 21.465C38.7885 21.465 38.2907 21.1931 38.2907 20.6493V1.81569C38.2907 1.2719 38.7885 1 39.784 1C40.7699 1 41.2628 1.2719 41.2628 1.81569V20.6493C41.2628 21.1931 40.7699 21.465 39.784 21.465Z" fill="#272727"/>
<path d="M45.333 27C44.3374 27 43.8396 26.7281 43.8396 26.1843V7.3507C43.8396 6.80691 44.3374 6.53501 45.333 6.53501C46.3188 6.53501 46.8117 6.80691 46.8117 7.3507V8.23922C47.9342 7.11279 49.4422 6.54958 51.3358 6.54958C56.3333 6.54958 58.832 9.03548 58.832 14.0073C58.832 18.9791 56.3333 21.465 51.3358 21.465C49.452 21.465 47.944 20.9018 46.8117 19.7754V26.1843C46.8117 26.7281 46.3188 27 45.333 27ZM51.3358 19.8336C52.878 19.8336 54.0151 19.1879 54.7472 17.8964C55.489 16.6049 55.8599 15.3085 55.8599 14.0073C55.8599 12.7061 55.489 11.4097 54.7472 10.1182C54.0151 8.8267 52.878 8.18095 51.3358 8.18095C49.8034 8.18095 48.6663 8.8267 47.9244 10.1182C47.1826 11.4097 46.8117 12.7061 46.8117 14.0073C46.8117 15.3085 47.1826 16.6049 47.9244 17.8964C48.6663 19.1879 49.8034 19.8336 51.3358 19.8336Z" fill="#272727"/>
<path d="M68.9782 21.4504C67.0456 21.4893 65.2594 21.062 63.6196 20.1686C61.9896 19.2753 60.8964 17.8478 60.34 15.8863C60.3107 15.7406 60.2961 15.6678 60.2961 15.6678C60.2961 15.1337 60.7939 14.8667 61.7895 14.8667C62.6484 14.8667 63.1365 15.0997 63.2536 15.5658C64.0149 18.411 65.9329 19.8336 69.0075 19.8336C70.2569 19.8336 71.5014 19.4646 72.741 18.7266C73.9806 17.9789 74.6004 16.8962 74.6004 15.4784C74.6004 14.4977 73.9855 13.7257 72.7556 13.1625C71.8381 12.7352 70.6717 12.4487 69.2564 12.3031C68.3291 12.206 67.3775 12.0603 66.4014 11.8661C65.4253 11.6719 64.5176 11.3612 63.6782 10.9339C61.7553 9.93371 60.7939 8.4577 60.7939 6.50588C60.7939 4.52493 61.7553 3.11204 63.6782 2.26723C65.6108 1.42241 67.4019 1 69.0514 1C70.74 1 72.3554 1.37871 73.8976 2.13613C75.4398 2.89356 76.45 4.1268 76.9283 5.83585C76.9673 5.9718 76.9869 6.06891 76.9869 6.12717C76.9869 6.66125 76.4988 6.92829 75.5228 6.92829C74.6541 6.92829 74.1611 6.69524 74.044 6.22913C73.4486 3.83063 71.7844 2.63137 69.0514 2.63137C67.8997 2.63137 66.7284 2.94211 65.5376 3.56359C64.3565 4.17535 63.766 5.15126 63.766 6.49132C63.766 7.43324 64.4493 8.20037 65.8158 8.79272C66.8309 9.21998 68.0949 9.5113 69.6078 9.66667C70.5643 9.76377 71.5599 9.91914 72.5946 10.1328C73.6292 10.3464 74.5516 10.7106 75.3617 11.2252C76.8258 12.1477 77.5579 13.5266 77.5579 15.3619C77.5579 17.5274 76.5769 19.0762 74.615 20.0084C72.6629 20.9406 70.784 21.4213 68.9782 21.4504Z" fill="#272727"/>
<path d="M92.3306 21.465C91.3448 21.465 90.8519 21.1931 90.8519 20.6493V13.1042C90.8519 11.9681 90.5396 10.8659 89.9149 9.79776C89.2902 8.7296 88.3044 8.19552 86.9574 8.19552C85.5128 8.19552 84.4489 8.77815 83.7657 9.94342C83.0824 11.099 82.7408 12.2837 82.7408 13.4975V20.6493C82.7408 21.1931 82.2479 21.465 81.262 21.465C80.2664 21.465 79.7687 21.1931 79.7687 20.6493V1.81569C79.7687 1.2719 80.2664 1 81.262 1C82.2479 1 82.7408 1.2719 82.7408 1.81569V8.25378C83.8145 7.11765 85.2786 6.54958 87.1331 6.54958C89.0852 6.54958 90.686 7.17105 91.9353 8.41401C93.1945 9.64725 93.824 11.2058 93.824 13.0896V20.6493C93.824 21.1931 93.3262 21.465 92.3306 21.465Z" fill="#272727"/>
<path d="M103.18 21.465C100.964 21.465 99.0948 20.8095 97.5721 19.4986C96.0495 18.178 95.2881 16.3767 95.2881 14.0947C95.2881 11.7739 96.0592 9.93856 97.6014 8.5888C99.1534 7.22932 101.057 6.54958 103.311 6.54958C105.459 6.54958 107.308 7.11279 108.86 8.23922C110.412 9.35593 111.188 11.031 111.188 13.2644C111.188 13.8859 110.695 14.1966 109.71 14.1966H98.2456C98.2651 15.6338 98.7044 16.935 99.5633 18.1003C100.422 19.2655 101.633 19.8482 103.194 19.8482C104.317 19.8482 105.356 19.5472 106.313 18.9451C107.318 18.3042 107.865 17.5468 107.953 16.6728C108.001 16.1679 108.485 15.9154 109.402 15.9154C110.407 15.9154 110.91 16.1824 110.91 16.7165C110.91 16.9884 110.827 17.3186 110.661 17.707C110.3 18.5615 109.612 19.319 108.597 19.9793C107.074 20.9697 105.268 21.465 103.18 21.465ZM108.187 12.5798C107.875 9.63754 106.249 8.16639 103.311 8.16639C100.696 8.16639 99.0655 9.63754 98.4213 12.5798H108.187Z" fill="#272727"/>
<path d="M114.512 21.465C113.516 21.465 113.018 21.1931 113.018 20.6493V1.81569C113.018 1.2719 113.516 1 114.512 1C115.498 1 115.991 1.2719 115.991 1.81569V20.6493C115.991 21.1931 115.498 21.465 114.512 21.465Z" fill="#272727"/>
<path d="M125.507 21.465C122.218 21.4456 120.573 20.1055 120.573 17.4448V8.18095H118.933C117.948 8.18095 117.455 7.90906 117.455 7.36527C117.455 6.82148 117.948 6.54958 118.933 6.54958H120.573V1.81569C120.573 1.2719 121.071 1 122.067 1C123.062 1 123.56 1.2719 123.56 1.81569V6.54958H126.02C127.015 6.54958 127.513 6.82148 127.513 7.36527C127.513 7.90906 127.015 8.18095 126.02 8.18095H123.56V17.4448C123.56 19.0373 124.214 19.8336 125.522 19.8336C125.795 19.8336 126.054 19.8093 126.298 19.7608C126.552 19.7025 126.805 19.6734 127.059 19.6734C128.084 19.6734 128.596 19.955 128.596 20.5182C128.596 20.8969 128.186 21.1591 127.367 21.3048C126.722 21.4116 126.103 21.465 125.507 21.465Z" fill="#272727"/>
<path d="M136.854 21.465C134.638 21.465 132.769 20.8095 131.246 19.4986C129.724 18.178 128.962 16.3767 128.962 14.0947C128.962 11.7739 129.734 9.93856 131.276 8.5888C132.828 7.22932 134.731 6.54958 136.986 6.54958C139.133 6.54958 140.983 7.11279 142.535 8.23922C144.087 9.35593 144.863 11.031 144.863 13.2644C144.863 13.8859 144.37 14.1966 143.384 14.1966H131.92C131.939 15.6338 132.379 16.935 133.238 18.1003C134.097 19.2655 135.307 19.8482 136.869 19.8482C137.991 19.8482 139.031 19.5472 139.987 18.9451C140.992 18.3042 141.539 17.5468 141.627 16.6728C141.676 16.1679 142.159 15.9154 143.076 15.9154C144.082 15.9154 144.584 16.1824 144.584 16.7165C144.584 16.9884 144.501 17.3186 144.336 17.707C143.974 18.5615 143.286 19.319 142.271 19.9793C140.748 20.9697 138.943 21.465 136.854 21.465ZM141.861 12.5798C141.549 9.63754 139.924 8.16639 136.986 8.16639C134.37 8.16639 132.74 9.63754 132.096 12.5798H141.861Z" fill="#272727"/>
<path d="M148.552 21.465C147.557 21.465 147.059 21.1931 147.059 20.6493V7.36527C147.059 6.82148 147.557 6.54958 148.552 6.54958C149.538 6.54958 150.031 6.82148 150.031 7.36527V8.25378C150.841 7.11765 152.022 6.54958 153.574 6.54958C154.755 6.54958 155.775 6.82633 156.634 7.37983C156.878 7.5352 157 7.7197 157 7.93333C157 8.20523 156.844 8.44314 156.531 8.64706C156.258 8.83156 155.956 8.92381 155.624 8.92381C155.311 8.92381 155.043 8.84127 154.818 8.67619C154.36 8.3169 153.847 8.13725 153.281 8.13725C152.149 8.13725 151.295 8.7296 150.719 9.91429C150.26 10.8368 150.031 12.0797 150.031 13.6431V20.6493C150.031 21.1931 149.538 21.465 148.552 21.465Z" fill="#272727"/>
</svg>
