<svg width="32" height="32" viewBox="0 0 32 32" fill="none" xmlns="http://www.w3.org/2000/svg">
<path fill-rule="evenodd" clip-rule="evenodd" d="M15.5004 20.1735H10.7843C10.4744 20.1735 10.2229 19.922 10.2229 19.6122C10.2229 19.3023 10.4744 19.0508 10.7843 19.0508H15.5004C15.8102 19.0508 16.0617 19.3023 16.0617 19.6122C16.0617 19.922 15.8102 20.1735 15.5004 20.1735Z" fill="#272727"/>
<path fill-rule="evenodd" clip-rule="evenodd" d="M22.3194 12.919H17.6041C17.2942 12.919 17.0427 12.6676 17.0427 12.3577C17.0427 12.0478 17.2942 11.7963 17.6041 11.7963H22.3194C22.6293 11.7963 22.8808 12.0478 22.8808 12.3577C22.8808 12.6676 22.6293 12.919 22.3194 12.919Z" fill="#272727"/>
<mask id="mask0_475_1489" style="mask-type:luminance" maskUnits="userSpaceOnUse" x="10" y="10" width="5" height="5">
<path fill-rule="evenodd" clip-rule="evenodd" d="M10.2009 10H14.8608V14.6342H10.2009V10Z" fill="white"/>
</mask>
<g mask="url(#mask0_475_1489)">
<path fill-rule="evenodd" clip-rule="evenodd" d="M12.5313 11.1224C11.8659 11.1224 11.324 11.6583 11.324 12.3177C11.324 12.9764 11.8659 13.5115 12.5313 13.5115C13.1975 13.5115 13.7386 12.9764 13.7386 12.3177C13.7386 11.6583 13.1975 11.1224 12.5313 11.1224ZM12.5312 14.6341C11.2468 14.6341 10.2012 13.5952 10.2012 12.3176C10.2012 11.04 11.2468 9.99958 12.5312 9.99958C13.8163 9.99958 14.8612 11.04 14.8612 12.3176C14.8612 13.5952 13.8163 14.6341 12.5312 14.6341Z" fill="#272727"/>
</g>
<path fill-rule="evenodd" clip-rule="evenodd" d="M20.9698 18.3886C20.3037 18.3886 19.7618 18.9245 19.7618 19.5831C19.7618 20.2425 20.3037 20.7777 20.9698 20.7777C21.6352 20.7777 22.1763 20.2425 22.1763 19.5831C22.1763 18.9245 21.6352 18.3886 20.9698 18.3886ZM20.9699 21.9004C19.6848 21.9004 18.6392 20.8608 18.6392 19.5831C18.6392 18.3055 19.6848 17.2659 20.9699 17.2659C22.2543 17.2659 23.2991 18.3055 23.2991 19.5831C23.2991 20.8608 22.2543 21.9004 20.9699 21.9004Z" fill="#272727"/>
<circle cx="16" cy="16" r="15.25" stroke="#E0DCD8" stroke-width="1.5"/>
</svg>
