<svg width="32" height="32" viewBox="0 0 32 32" fill="none" xmlns="http://www.w3.org/2000/svg">
<rect width="32" height="32" rx="6" fill="#1D9BF0"/>
<path d="M13.072 24.44C20.168 24.44 24.048 18.56 24.048 13.464C24.048 13.296 24.048 13.128 24.04 12.968C24.792 12.424 25.448 11.744 25.968 10.968C25.28 11.272 24.536 11.48 23.752 11.576C24.552 11.096 25.16 10.344 25.448 9.44003C24.704 9.88003 23.88 10.2 23 10.376C22.296 9.62403 21.296 9.16003 20.184 9.16003C18.056 9.16003 16.328 10.888 16.328 13.016C16.328 13.32 16.36 13.616 16.432 13.896C13.224 13.736 10.384 12.2 8.48003 9.86403C8.15203 10.432 7.96003 11.096 7.96003 11.8C7.96003 13.136 8.64003 14.32 9.68003 15.008C9.04803 14.992 8.45603 14.816 7.93603 14.528C7.93603 14.544 7.93603 14.56 7.93603 14.576C7.93603 16.448 9.26402 18 11.032 18.36C10.712 18.448 10.368 18.496 10.016 18.496C9.76803 18.496 9.52803 18.472 9.28803 18.424C9.77603 19.96 11.2 21.072 12.888 21.104C11.568 22.136 9.90403 22.752 8.09603 22.752C7.78403 22.752 7.48003 22.736 7.17603 22.696C8.86403 23.8 10.896 24.44 13.072 24.44Z" fill="white"/>
</svg>
